<svg xmlns="http://www.w3.org/2000/svg" xmlns:xlink="http://www.w3.org/1999/xlink" width="500" zoomAndPan="magnify" viewBox="0 0 375 374.999991" height="500" preserveAspectRatio="xMidYMid meet" version="1.0"><defs><clipPath id="a383b0c1f7"><path d="M 140.605469 127.761719 L 234.355469 127.761719 L 234.355469 247.011719 L 140.605469 247.011719 Z M 140.605469 127.761719 " clip-rule="nonzero"/></clipPath></defs><rect x="-37.5" width="450" fill="#ffffff" y="-37.499999" height="449.999989" fill-opacity="1"/><rect x="-37.5" width="450" fill="#9e4a16" y="-37.499999" height="449.999989" fill-opacity="1"/><g clip-path="url(#a383b0c1f7)"><path fill="#ebc085" d="M 140.597656 138.492188 L 183.976562 127.914062 L 183.976562 247.066406 L 140.597656 236.484375 Z M 234.394531 236.136719 L 220.632812 239.472656 L 220.632812 198.550781 C 220.632812 197.832031 220.339844 197.148438 219.820312 196.652344 C 219.300781 196.160156 218.589844 195.898438 217.890625 195.933594 L 210.765625 196.273438 C 209.371094 196.339844 208.269531 197.492188 208.269531 198.890625 L 208.269531 242.460938 L 189.21875 247.070312 L 189.21875 127.90625 L 208.269531 132.519531 L 208.269531 176.085938 C 208.269531 177.484375 209.363281 178.636719 210.761719 178.703125 L 217.882812 179.046875 C 218.890625 178.976562 219.339844 178.753906 219.820312 178.328125 C 220.355469 177.847656 220.632812 177.148438 220.632812 176.429688 L 220.632812 135.503906 L 234.394531 138.835938 Z M 234.394531 236.136719 " fill-opacity="1" fill-rule="nonzero"/></g></svg>